<svg xmlns="http://www.w3.org/2000/svg" width="60" height="60" viewBox="0 0 60 60">
  <g id="Group_37322" data-name="Group 37322" transform="translate(68.1 68.1) rotate(180)">
    <path id="Path_1034" data-name="Path 1034" d="M38.1,68.1a30,30,0,1,1,30-30A30,30,0,0,1,38.1,68.1Zm0-56.736A26.736,26.736,0,1,0,64.836,38.1,26.839,26.839,0,0,0,38.1,11.364Z" fill="#9d9d9d"/>
    <path id="Path_1035" data-name="Path 1035" d="M36,52.693,18.8,35.5,36,18.3l2.259,2.385L23.57,35.5,38.256,50.308,36,52.693" transform="translate(2.731 2.603)"/>
    <path id="Path_1036" data-name="Path 1036" d="M20.7,30.6H50.826v3.515H20.7Z" transform="translate(3.216 5.743)"/>
  </g>
</svg>
