<svg xmlns="http://www.w3.org/2000/svg" width="53" height="51.472" viewBox="0 0 53 51.472">
  <g id="Group_37454" data-name="Group 37454" transform="translate(-1801.397 -123.632)">
    <path id="Path_1030" data-name="Path 1030" d="M16.444,38.556a3.333,3.333,0,1,0,3.333,3.333A3.333,3.333,0,0,0,16.444,38.556Zm23.333-6.667H13.111a2.222,2.222,0,0,1,0-4.444H31.98a6.7,6.7,0,0,0,6.411-4.835l3.523-12.332a2.222,2.222,0,0,0-2.137-2.833H12.531A6.681,6.681,0,0,0,6.27,3H4.222a2.222,2.222,0,0,0,0,4.444H6.27A2.232,2.232,0,0,1,8.406,9.056l.346,1.211v.011L12.4,23.038a6.667,6.667,0,0,0,.713,13.3H39.778a2.222,2.222,0,1,0,0-4.444Zm-2.946-20-2.714,9.5A2.232,2.232,0,0,1,31.98,23H17.01l-.567-1.983-2.607-9.128Zm-2.61,26.667a3.333,3.333,0,1,0,3.333,3.333A3.333,3.333,0,0,0,34.222,38.556Z" transform="translate(1799.397 129.882)"/>
    <g id="Group_37190" data-name="Group 37190" transform="translate(4803.397 199.632)">
      <circle id="Ellipse_10" data-name="Ellipse 10" cx="14" cy="14" r="14" transform="translate(-2977 -76)" fill="#3188ca"/>
      <text id="_2" data-name="2" transform="translate(-2958 -57)" fill="#fff" font-size="18" font-family="JosefinSans-SemiBold, Josefin Sans" font-weight="600"><tspan x="-10" y="0">2</tspan></text>
    </g>
  </g>
</svg>
