<svg id="Group_37341" data-name="Group 37341" xmlns="http://www.w3.org/2000/svg" width="45" height="45" viewBox="0 0 45 45">
  <path id="Path_1137" data-name="Path 1137" d="M0,0H45V45H0Z" fill="none"/>
  <path id="Path_1138" data-name="Path 1138" d="M22.741,4A18.75,18.75,0,1,0,41.5,22.75,18.737,18.737,0,0,0,22.741,4ZM35.725,15.25H30.194a29.784,29.784,0,0,0-2.587-6.675A15.015,15.015,0,0,1,35.725,15.25ZM22.75,7.816a25.966,25.966,0,0,1,3.581,7.434H19.169A25.966,25.966,0,0,1,22.75,7.816ZM8.238,26.5a14.667,14.667,0,0,1,0-7.5h6.328a30.841,30.841,0,0,0-.253,3.75,29.06,29.06,0,0,0,.262,3.75Zm1.528,3.75H15.3a30.034,30.034,0,0,0,2.587,6.684A15.032,15.032,0,0,1,9.766,30.25Zm5.531-15H9.766a15.032,15.032,0,0,1,8.119-6.684A30.034,30.034,0,0,0,15.3,15.25ZM22.75,37.684a26.468,26.468,0,0,1-3.581-7.434h7.163A26.467,26.467,0,0,1,22.75,37.684ZM27.137,26.5H18.362a26.054,26.054,0,0,1-.3-3.75,26.054,26.054,0,0,1,.3-3.75h8.775a26.054,26.054,0,0,1,.3,3.75A26.054,26.054,0,0,1,27.137,26.5Zm.478,10.425A29.96,29.96,0,0,0,30.2,30.25h5.531a15.082,15.082,0,0,1-8.119,6.675ZM30.925,26.5a30.833,30.833,0,0,0,.262-3.75A29.06,29.06,0,0,0,30.925,19h6.328a15.01,15.01,0,0,1,.5,3.75,14.588,14.588,0,0,1-.5,3.75Z" transform="translate(-0.25 -0.25)" fill="#fff"/>
</svg>
