<svg xmlns="http://www.w3.org/2000/svg" width="45" height="45" viewBox="0 0 45 45">
  <g id="Group_37452" data-name="Group 37452" transform="translate(-139 -18)">
    <circle id="Ellipse_58" data-name="Ellipse 58" cx="22.5" cy="22.5" r="22.5" transform="translate(139 18)" fill="#fff"/>
    <path id="Path_1173" data-name="Path 1173" d="M17.845,20.359H4.046a3.3,3.3,0,0,1-3.3-3.3V3.3A3.3,3.3,0,0,1,4.046,0h13.8a3.3,3.3,0,0,1,3.3,3.3V17.062a3.3,3.3,0,0,1-3.3,3.3ZM7.59,4.214h6.848a2.634,2.634,0,0,1,2.634,2.634V13.7a2.634,2.634,0,0,1-2.634,2.634H7.59A2.634,2.634,0,0,1,4.956,13.7V6.848A2.634,2.634,0,0,1,7.59,4.214Zm0-1.58A4.214,4.214,0,0,0,3.376,6.848V13.7A4.214,4.214,0,0,0,7.59,17.909h6.848A4.214,4.214,0,0,0,18.651,13.7V6.848a4.214,4.214,0,0,0-4.214-4.214H7.59Zm3.424,11.325a3.687,3.687,0,1,0-3.687-3.687,3.687,3.687,0,0,0,3.687,3.687Zm0-1.58a2.107,2.107,0,1,1,2.107-2.107A2.107,2.107,0,0,1,11.013,12.378Zm3.95-5A1.053,1.053,0,1,0,13.91,6.321,1.053,1.053,0,0,0,14.964,7.374Z" transform="translate(150.555 29.82)" fill="#3787c9"/>
  </g>
</svg>
