<svg xmlns="http://www.w3.org/2000/svg" width="45" height="45" viewBox="0 0 45 45">
  <g id="Group_37449" data-name="Group 37449" transform="translate(-304 -18)">
    <circle id="Ellipse_62" data-name="Ellipse 62" cx="22.5" cy="22.5" r="22.5" transform="translate(304 18)" fill="#fff"/>
    <path id="Path_1177" data-name="Path 1177" d="M4.992,21.028V6.84H.276V21.028ZM2.635,4.9A2.459,2.459,0,1,0,2.666,0,2.458,2.458,0,1,0,2.6,4.9h.031ZM7.6,21.028h4.716V13.1a3.232,3.232,0,0,1,.155-1.151,2.581,2.581,0,0,1,2.42-1.725c1.707,0,2.389,1.3,2.389,3.208v7.59H22V12.893c0-4.358-2.327-6.386-5.429-6.386A4.7,4.7,0,0,0,12.287,8.9h.031V6.84H7.6c.062,1.331,0,14.188,0,14.188Z" transform="translate(315.502 28.427)" fill="#3787c9"/>
  </g>
</svg>
