<svg xmlns="http://www.w3.org/2000/svg" width="45" height="45" viewBox="0 0 45 45">
  <g id="Group_37450" data-name="Group 37450" transform="translate(-249 -18)">
    <circle id="Ellipse_61" data-name="Ellipse 61" cx="22.5" cy="22.5" r="22.5" transform="translate(249 18)" fill="#fff"/>
    <path id="Path_1176" data-name="Path 1176" d="M24,6a9.339,9.339,0,0,1-2.6.7,4.543,4.543,0,0,0,1.991-2.5,9.031,9.031,0,0,1-2.871,1.1,4.51,4.51,0,0,0-7.7,4.114A12.8,12.8,0,0,1,3.529,4.7a4.576,4.576,0,0,0-.605,2.277,4.5,4.5,0,0,0,2,3.751,4.455,4.455,0,0,1-2.046-.561v.055a4.51,4.51,0,0,0,3.63,4.4,4.323,4.323,0,0,1-1.21.187,5.39,5.39,0,0,1-.847-.077,4.521,4.521,0,0,0,4.213,3.124A9.042,9.042,0,0,1,3.1,19.789,8.723,8.723,0,0,1,2,19.723a12.727,12.727,0,0,0,6.919,2.035A12.749,12.749,0,0,0,21.8,8.91V8.327A9.273,9.273,0,0,0,24,6Z" transform="translate(258.5 27.696)" fill="#3787c9"/>
  </g>
</svg>
