<svg xmlns="http://www.w3.org/2000/svg" xmlns:xlink="http://www.w3.org/1999/xlink" width="67" height="43" viewBox="0 0 67 43">
  <defs>
    <linearGradient id="linear-gradient" x1="0.5" x2="0.5" y2="1" gradientUnits="objectBoundingBox">
      <stop offset="0" stop-color="#1d4c80"/>
      <stop offset="1" stop-color="#173a63"/>
    </linearGradient>
  </defs>
  <g id="Layer_x0020_1" transform="translate(-34 -867.59)">
    <g id="_235782456" transform="translate(34 867.59)">
      <rect id="Rectangle_297" data-name="Rectangle 297" width="67" height="43" rx="10" transform="translate(0 0)" fill="url(#linear-gradient)"/>
      <path id="Path_1074" data-name="Path 1074" d="M551.89,1268.962l.3-1.18c1.149-.346,3.494-.5,3.934.74.252.724-.472,3.73-.614,4.611l-1.117.016c-.252-.315-.047.267-.22-.5-1.07.96-3.352.8-3.179-1.133.173-1.92,1.841-1.668,3.651-1.951-.031-1.227-1.574-.9-2.77-.614Zm8.419-.189c-1.023,0-1.18-.22-2.077.173.11,1.117.692.677,1.495,1.212,1.526,1.007-.11,4.123-3.745,2.785l.2-1.133c1.023.2,1.542.409,2.329-.031.189-1.589-2.628-.551-1.841-3.1.425-1.385,2.3-1.2,3.84-1.054l-.22,1.149Zm-15.674-2.408,2.408.079.252,3.777,1.306-3.021c.441-1.086.142-.85,2.911-.818l-1.243,6.751-1.353-.016.74-4.847-2,4.878-1.621-.047a35.176,35.176,0,0,0-.378-4.894l-.818,4.91-1.416-.016ZM567.6,1280.7l.661-.787c-1.322-.173-1.558.2-2.156-.866l3.037-.031a8.821,8.821,0,0,0,.661-.976c-3.462-.236-4.438.645-4.989-.865h5.555l.614-.96-6.861-.031-.315-.8,7.4-.031c.425-.236.425-.5.535-.991l-7-.016c-1.259.016-1.338.3-1.574-.85h8.813l.283-.976-2.581-.031-.126.661-1.479-.063.928-5.492,1.4.189c0,.031.031.142.031.189,0,.031.016.079.016.094l.079.283a1.6,1.6,0,0,1,1.558-.787l-.472,1.275c-.268.346-1.054-.047-1.385.9l1.542.063a9.939,9.939,0,0,1,.645-2.093l.016-.472-9.647.016-.031.346c.519,0,.5-.094.8.157l-.142.928c-.976.236-.944-.346-1.039.928.142.236-.031.11.268.189l.614.016c.991-3.226,3.95-2.518,4.627-1.511.362.535.724,2.3-.173,2.439l-3.006.031c.142,1.589,1.967,1.259,3.147.865-.047.661,0,1.2-.614,1.416a4.719,4.719,0,0,1-2.046,0,2.241,2.241,0,0,1-1.983-2.392l-.567-.016c-.519-.236-.11,0-.378-.645-.22,1.322-.818,2.172.818,1.983-.094.787.016,1.054-.85,1.149-2.518.3-1.7-1.385-1.29-3.635.645-3.588.142-3.147,1.967-3.116l9.379.016-.189-.976-9.064-.031.173-.787,8.576-.047c-.22-1.338-.268-1.007-3.383-1.007h-4.753c.331-1.149.157-.834,3.242-.834h4.17l-.441-.991-6.043-.016.409-.818,5.052-.031c-.645-1.322-.614-.944-4.186-1.007.456-1.133,1.259-.85,2.66-.85-.393-.629-.677-.582-.913-1.117a16.474,16.474,0,0,1-1.684-1.243,15.3,15.3,0,1,0-5.823,27.665c4.5-.771,5.634-2.6,7.491-3.619Z" transform="translate(-533.982 -1247.845)" fill="#e41d2c" fill-rule="evenodd"/>
      <path id="Path_1075" data-name="Path 1075" d="M1880.076,1272.051c4.878-.991,4.076,1.416,3.682,3.368-.126.582-.126,1.731-.582,2.046a6.886,6.886,0,0,1-.818-.016c-.441-.173-.236.346-.3-.456-1.322.755-3.415.928-3.163-1.18.2-1.684,1.9-1.951,3.635-1.873-.063-1.243-1.2-1.039-2.77-.645l.33-1.243Zm4.815-.142,1.306.016a.291.291,0,0,1,.031.11l.2.582a1.6,1.6,0,0,1,1.369-.693l-.189,1.117-.645.252c-1.29.425-1.212,2.046-1.558,4.17h-1.464Zm6.94-1.2h1.338l-1.149,6.767c-1.495.016-1.133.094-1.6-.472-.976,1.448-3.9.11-3.006-2.88.661-2.235,2.9-2.833,4-1.511l.441-1.92Zm-22.016-8.5c.236.535.535.488.913,1.117-1.4,0-2.2-.3-2.66.85,3.572.063,3.541-.315,4.186,1.007l-5.052.031-.409.818,6.043.016.44.991h-4.17c-3.069,0-2.911-.3-3.242.834h4.752c3.116,0,3.163-.33,3.383,1.007l-8.576.047-.173.787,9.064.031.189.976-9.379-.016-.126.881,9.646-.016-.016.472c.724-.692.6-1.054,1.951-1.448a5.3,5.3,0,0,1,2.927.157l-.236,1.448c-1.888-.567-3.116-.425-3.556,1.526-.488,2.093,1.164,2.88,2.911,2.046-.157,1.526-.409,1.9-2.2,1.668a2.809,2.809,0,0,1-2.172-1.495H1872l-.126.866,2.581.031-.283.976h-8.812c.236,1.149.315.865,1.574.85l7,.016c-.126.472-.11.755-.535.991l-7.4.031.315.8,6.861.031-.614.96h-5.555c.551,1.5,1.526.63,4.988.866a8.792,8.792,0,0,1-.661.976l-3.037.031c.582,1.054.834.693,2.156.866l-.661.787c2.25,1.652,4,3.037,7.632,3.667a15.842,15.842,0,0,0,9.411-1.369,15.294,15.294,0,0,0-.094-27.46,15.772,15.772,0,0,0-13.644.094,21.1,21.1,0,0,0-3.273,2.266Z" transform="translate(-1836.186 -1252.162)" fill="#f8b02b" fill-rule="evenodd"/>
      <path id="Path_1076" data-name="Path 1076" d="M634,2034.99l1.416.016.818-4.91a35.174,35.174,0,0,1,.378,4.894l1.621.047,2-4.878-.74,4.847,1.353.016,1.243-6.751c-2.77-.031-2.471-.268-2.911.818l-1.306,3.021-.252-3.777-2.408-.079Zm43.842-1.243c-1.18-1.212-.173-3.226.928-2.958C679.857,2031.056,679.652,2033.716,677.842,2033.747Zm1.92-3.572c-1.1-1.322-3.32-.724-4,1.511-.9,2.974,2.03,4.328,3.006,2.88.472.566.11.472,1.605.472l1.149-6.767h-1.338l-.441,1.92Zm-10.811,3.588c-.22-1.054.755-1.464,1.684-1.275A1.171,1.171,0,0,1,668.951,2033.763Zm-.5-4.139-.33,1.243c1.574-.378,2.722-.582,2.77.645-1.731-.079-3.431.189-3.635,1.873-.268,2.109,1.841,1.936,3.163,1.18.063.8-.142.283.3.456a6.886,6.886,0,0,0,.818.016c.472-.3.472-1.464.582-2.046.409-1.967,1.2-4.359-3.682-3.368Zm-23.479,2.817a1.306,1.306,0,0,1-.409,1.212c-.236.173-.944.378-1.228.11-.881-.8.771-1.338,1.621-1.322Zm-2.5-1.605c1.2-.283,2.738-.614,2.77.614-1.81.283-3.478.031-3.651,1.951-.189,1.936,2.093,2.093,3.179,1.133.173.771-.031.189.22.5l1.117-.016c.142-.9.866-3.887.614-4.611-.441-1.259-2.77-1.1-3.934-.74l-.3,1.18Zm13.046.787c.2-.8.551-1.133,1.479-1.007.331.472.331.331.393,1.007Zm-1.668.079-.063.85a2.263,2.263,0,0,0,1.983,2.392,4.721,4.721,0,0,0,2.046,0c.614-.2.567-.755.614-1.416-1.18.393-3.006.724-3.147-.865l3.006-.031c.9-.142.535-1.888.173-2.439-.677-1.007-3.635-1.715-4.627,1.511Zm9.159-2.093a9.941,9.941,0,0,0-.645,2.093v.866l.268.96a2.809,2.809,0,0,0,2.172,1.495c1.794.236,2.046-.142,2.2-1.668-1.763.834-3.4.047-2.911-2.046.456-1.967,1.684-2.093,3.556-1.526l.236-1.448a5.61,5.61,0,0,0-2.927-.157c-1.353.378-1.227.755-1.951,1.448Zm-11.913-.11c-1.542-.126-3.415-.331-3.84,1.054-.787,2.549,2.014,1.511,1.841,3.1-.8.441-1.306.236-2.329.031l-.2,1.133c3.635,1.338,5.256-1.762,3.745-2.785-.8-.535-1.385-.079-1.495-1.212.9-.409,1.039-.173,2.077-.173l.22-1.149Z" transform="translate(-624.558 -2009.719)" fill="#fefefe" fill-rule="evenodd"/>
      <path id="Path_1077" data-name="Path 1077" d="M1720.561,2044.559l.11-.378c.094-1.275.063-.692,1.039-.928l.142-.928c-.3-.252-.283-.157-.8-.157l.031-.346.126-.881c-1.825-.031-1.322-.472-1.967,3.116-.409,2.25-1.227,3.934,1.29,3.635.85-.094.755-.362.85-1.149C1719.759,2046.731,1720.357,2045.881,1720.561,2044.559Zm7.4,2.5.126-.866.157-.944.283-.944c.346-.944,1.133-.551,1.385-.9l.472-1.275a1.57,1.57,0,0,0-1.558.787l-.079-.283c0-.016-.016-.063-.016-.094s-.031-.157-.031-.189l-1.4-.189-.928,5.492,1.479.063.126-.661Zm12.07.629h1.464c.346-2.125.268-3.745,1.558-4.17l.645-.252.189-1.117a1.6,1.6,0,0,0-1.369.692l-.2-.582c-.016-.031-.016-.079-.031-.11l-1.306-.016Z" transform="translate(-1692.267 -2022.388)" fill="#fefefe" fill-rule="evenodd"/>
      <path id="Path_1078" data-name="Path 1078" d="M3386.667,2204.446c1.825-.031,2.03-2.691.928-2.958C3386.478,2201.22,3385.487,2203.234,3386.667,2204.446Z" transform="translate(-3333.383 -2180.417)" fill="#f8b02b" fill-rule="evenodd"/>
      <path id="Path_1079" data-name="Path 1079" d="M1213.9,2307.979c-.85-.016-2.5.519-1.621,1.322.283.252.991.047,1.227-.11a1.329,1.329,0,0,0,.409-1.211Zm15.406,1.07,2.25.016-.268-.96h-1.825Z" transform="translate(-1193.486 -2285.257)" fill="#e41d2c" fill-rule="evenodd"/>
      <path id="Path_1080" data-name="Path 1080" d="M2328.419,2258.14a1.172,1.172,0,0,0,1.684-1.275C2329.159,2256.692,2328.2,2257.1,2328.419,2258.14Zm-8.419-1.2h1.825v-.865l-1.542-.079Z" transform="translate(-2284.026 -2234.096)" fill="#f8b02b" fill-rule="evenodd"/>
      <path id="Path_1081" data-name="Path 1081" d="M2001,2191.381h1.873c-.047-.661-.063-.535-.393-1.007C2001.551,2190.248,2001.2,2190.578,2001,2191.381Z" transform="translate(-1970.046 -2169.477)" fill="#e41d2c" fill-rule="evenodd"/>
      <path id="Path_1082" data-name="Path 1082" d="M1832,2248.394c.268.645-.142.409.378.645l.567.016.063-.85-.614-.016c-.315-.063-.142.047-.268-.189l-.11.378Z" transform="translate(-1803.706 -2226.222)" fill="#f8b02b" fill-rule="evenodd"/>
    </g>
  </g>
</svg>
