<svg id="Group_37261" data-name="Group 37261" xmlns="http://www.w3.org/2000/svg" width="87" height="87" viewBox="0 0 87 87">
  <g id="Group_37260" data-name="Group 37260" transform="translate(6.891 31.624)">
    <path id="Path_1071" data-name="Path 1071" d="M42.967,74.877H36.992l3.734-22.948H46.7Zm-11-22.948-5.7,15.784-.674-3.4h0L23.587,54a2.558,2.558,0,0,0-2.834-2.066H11.336l-.11.389a22.35,22.35,0,0,1,6.249,2.623l5.191,19.937h6.225L38.4,51.929h-6.43ZM78.958,74.877h5.486L79.661,51.928h-4.8a2.745,2.745,0,0,0-2.758,1.71L63.19,74.877h6.228l1.245-3.409h7.595Zm-6.574-8.117,3.139-8.588,1.766,8.588Zm-8.727-9.312.853-4.928a17.245,17.245,0,0,0-5.374-1c-2.965,0-10.006,1.3-10.006,7.6,0,5.928,8.263,6,8.263,9.116s-7.412,2.556-9.858.592l-.888,5.153a16.743,16.743,0,0,0,6.744,1.3c4.077,0,10.228-2.111,10.228-7.856,0-5.966-8.338-6.522-8.338-9.116s5.819-2.261,8.376-.853Z" transform="translate(-11.226 -51.519)" fill="#2566af"/>
  </g>
  <path id="Path_1072" data-name="Path 1072" d="M25.6,64.572l-2.01-10.32a2.558,2.558,0,0,0-2.834-2.066H11.336l-.11.389a23.148,23.148,0,0,1,8.867,4.452A17.894,17.894,0,0,1,25.6,64.572Z" transform="translate(-4.335 -20.152)" fill="#e6a540"/>
  <path id="Path_1073" data-name="Path 1073" d="M0,0H87V87H0Z" fill="none"/>
</svg>
