<svg xmlns="http://www.w3.org/2000/svg" width="113.478" height="29" viewBox="0 0 113.478 29">
  <g id="Group_37262" data-name="Group 37262" transform="translate(-0.5 -24)">
    <path id="Path_1083" data-name="Path 1083" d="M53.447,28.2H47.322a1.2,1.2,0,0,0-.9.72L43.9,44.771a.478.478,0,0,0,.54.54h3.242a.478.478,0,0,0,.54-.54l.72-4.5a.824.824,0,0,1,.9-.721h1.981q6.214,0,7.025-5.944a4.721,4.721,0,0,0-.72-3.963A7.265,7.265,0,0,0,53.447,28.2m.72,5.944c-.36,2.161-1.981,2.161-3.6,2.161H49.484l.721-4.143c0-.18.18-.36.54-.36h.36c1.081,0,2.161,0,2.7.72.36.18.36.72.36,1.621" transform="translate(34.774 3.365)" fill="#139ad6"/>
    <path id="Path_1084" data-name="Path 1084" d="M28.947,28.2H22.822a1.2,1.2,0,0,0-.9.72L19.4,44.771a.478.478,0,0,0,.54.54h2.882a1.2,1.2,0,0,0,.9-.72l.72-4.323a.824.824,0,0,1,.9-.72h1.981q6.214,0,7.025-5.944a4.721,4.721,0,0,0-.72-3.963A6.923,6.923,0,0,0,28.947,28.2m.72,5.944c-.36,2.161-1.981,2.161-3.6,2.161h-.9l.72-4.143c0-.18.18-.36.54-.36h.36c1.081,0,2.161,0,2.7.72a1.929,1.929,0,0,1,.18,1.621m17.832-.18H44.617c-.18,0-.54.18-.54.36l-.18.9-.18-.36A4.237,4.237,0,0,0,40.294,33.6a6.921,6.921,0,0,0-6.665,5.944,5.369,5.369,0,0,0,1.081,4.5,4.539,4.539,0,0,0,3.783,1.441,5.757,5.757,0,0,0,4.143-1.621l-.18.9a.478.478,0,0,0,.54.54h2.7a1.2,1.2,0,0,0,.9-.721L48.22,34.5c-.18-.18-.54-.54-.72-.54m-4.143,5.764a3.484,3.484,0,0,1-3.422,2.882,2.88,2.88,0,0,1-1.981-.72,3.841,3.841,0,0,1-.54-2.161,3.213,3.213,0,0,1,5.224-2.161,3.145,3.145,0,0,1,.721,2.161" transform="translate(15.143 3.365)" fill="#263b80"/>
    <path id="Path_1085" data-name="Path 1085" d="M65.62,31.56H62.738c-.18,0-.54.18-.54.36l-.18.9-.18-.36A4.237,4.237,0,0,0,58.415,31.2a6.921,6.921,0,0,0-6.665,5.944,5.369,5.369,0,0,0,1.081,4.5,4.539,4.539,0,0,0,3.783,1.441,5.757,5.757,0,0,0,4.143-1.621l-.18.9a.478.478,0,0,0,.54.54h2.7a1.2,1.2,0,0,0,.9-.721L66.34,32.1c-.18-.18-.36-.54-.721-.54m-4.143,5.764a3.484,3.484,0,0,1-3.422,2.882,2.88,2.88,0,0,1-1.981-.72,3.841,3.841,0,0,1-.54-2.161,3.213,3.213,0,0,1,5.224-2.161,2.067,2.067,0,0,1,.72,2.161" transform="translate(40.973 5.769)" fill="#139ad6"/>
    <path id="Path_1086" data-name="Path 1086" d="M49.87,31.4H46.807a.936.936,0,0,0-.72.36l-3.963,6.124-1.8-5.764a.832.832,0,0,0-.9-.54H36.54c-.36,0-.54.36-.54.72l3.242,9.547L36.18,46.17c-.18.36,0,.9.36.9h2.882a.936.936,0,0,0,.72-.36l9.907-14.23c.54-.54.18-1.081-.18-1.081" transform="translate(28.444 5.929)" fill="#263b80"/>
    <path id="Path_1087" data-name="Path 1087" d="M62.422,28.692,59.9,44.9a.478.478,0,0,0,.54.54h2.522a1.2,1.2,0,0,0,.9-.72l2.522-15.851a.478.478,0,0,0-.54-.54H62.962c-.18-.18-.36,0-.54.36" transform="translate(47.594 3.414)" fill="#139ad6"/>
    <path id="Path_1088" data-name="Path 1088" d="M21.214,26.161C19.953,24.72,17.612,24,14.37,24H5.363A1.545,1.545,0,0,0,4.1,25.081L.5,48.677a.824.824,0,0,0,.72.9H6.8l1.441-8.826v.36a1.545,1.545,0,0,1,1.261-1.081h2.7c5.224,0,9.186-2.161,10.447-8.106v-.54h0c.18-2.342-.18-3.783-1.441-5.224" transform="translate(0 0)" fill="#263b80"/>
    <path id="Path_1089" data-name="Path 1089" d="M19.911,28.1v.54c-1.261,6.124-5.224,8.106-10.447,8.106h-2.7A1.545,1.545,0,0,0,5.5,37.827L3.7,48.814a.66.66,0,0,0,.72.721H9.1a1.009,1.009,0,0,0,1.081-.9v-.18l.9-5.584v-.36a1.009,1.009,0,0,1,1.081-.9h.72c4.5,0,8.106-1.8,9.006-7.2.36-2.161.18-4.143-.9-5.4a1.845,1.845,0,0,0-1.081-.9" transform="translate(2.564 3.285)" fill="#139ad6"/>
    <path id="Path_1090" data-name="Path 1090" d="M17.769,28.04c-.18,0-.36-.18-.54-.18a.662.662,0,0,1-.54-.18,9.516,9.516,0,0,0-2.342-.18H7.322a.662.662,0,0,0-.54.18.991.991,0,0,0-.54.9L4.8,37.947v.36a1.545,1.545,0,0,1,1.261-1.081h2.7c5.224,0,9.186-2.161,10.447-8.106a.662.662,0,0,1,.18-.54c-.36-.18-.54-.36-.9-.36-.54-.18-.54-.18-.72-.18" transform="translate(3.445 2.804)" fill="#232c65"/>
  </g>
</svg>
