<svg xmlns="http://www.w3.org/2000/svg" width="45" height="45" viewBox="0 0 45 45">
  <g id="Group_37451" data-name="Group 37451" transform="translate(-194 -18)">
    <circle id="Ellipse_60" data-name="Ellipse 60" cx="22.5" cy="22.5" r="22.5" transform="translate(194 18)" fill="#fff"/>
    <path id="Path_1155" data-name="Path 1155" d="M24.519,10.086a9.087,9.087,0,0,0-.973-4.415A3.121,3.121,0,0,0,21.707,4.6a83.769,83.769,0,0,0-8.948-.331,83.858,83.858,0,0,0-8.915.321,3.068,3.068,0,0,0-1.561.791c-.962.887-1.069,2.405-1.176,3.688a51.62,51.62,0,0,0,0,6.927,10.209,10.209,0,0,0,.321,2.138,3.357,3.357,0,0,0,.759,1.454,3.057,3.057,0,0,0,1.593.834,48.3,48.3,0,0,0,6.949.353c3.741.053,7.023,0,10.9-.3a3.079,3.079,0,0,0,1.636-.834,2.662,2.662,0,0,0,.652-1.069,11.31,11.31,0,0,0,.556-3.635C24.519,14.341,24.519,10.728,24.519,10.086ZM10.344,15.581V8.964l6.328,3.325C14.9,13.272,12.556,14.384,10.344,15.581Z" transform="translate(203.976 28.414)" fill="#3787c9"/>
  </g>
</svg>
